<?xml version="1.0" standalone="no"?>
<!DOCTYPE svg PUBLIC "-//W3C//DTD SVG 20010904//EN"
 "http://www.w3.org/TR/2001/REC-SVG-20010904/DTD/svg10.dtd">
<svg version="1.0" xmlns="http://www.w3.org/2000/svg"
 width="700.000000pt" height="700.000000pt" viewBox="0 0 700.000000 700.000000"
 preserveAspectRatio="xMidYMid meet">
<metadata>
Created by potrace 1.14, written by Peter Selinger 2001-2017
</metadata>
<g transform="translate(0.000000,700.000000) scale(0.100000,-0.100000)"
fill="#000000" stroke="none">
<path d="M3270 5963 c-754 -77 -1415 -476 -1832 -1103 -195 -293 -324 -628
-385 -995 -26 -158 -26 -583 0 -740 92 -548 320 -999 696 -1376 374 -373 835
-607 1376 -696 157 -26 583 -26 740 0 383 63 692 184 1005 392 580 386 960
982 1077 1690 26 158 26 583 0 740 -92 548 -321 1000 -696 1376 -393 393 -883
632 -1444 704 -107 14 -434 19 -537 8z m-33 -1116 c1 -2 5 -433 9 -960 l7
-957 669 0 668 0 0 -360 0 -360 -1030 0 -1030 0 0 1318 c0 725 2 1321 4 1323
4 4 699 0 703 -4z m682 -1342 l311 -290 -342 -7 c-189 -3 -345 -4 -347 -2 -3
3 -7 152 -9 331 l-5 327 40 -35 c22 -19 180 -164 352 -324z"/>
</g>
</svg>
